<svg width="144" height="372" viewBox="0 0 144 372" fill="none" xmlns="http://www.w3.org/2000/svg">
<path d="M79.1146 200.862H64.1302C63.4548 200.862 62.788 200.71 62.1794 200.417C61.5707 200.124 61.0359 199.698 60.6143 199.17C60.1928 198.643 59.8954 198.027 59.7443 197.369C59.5932 196.71 59.5923 196.026 59.7415 195.368L62.5167 183.121C26.9085 177.332 0.122375 138.435 0.122375 92.3619C0.122375 41.9087 32.1971 0.861877 71.6224 0.861877C111.048 0.861877 143.122 41.9087 143.122 92.3619C143.122 138.435 116.336 177.332 80.7281 183.121L83.5032 195.368C83.6525 196.026 83.6515 196.71 83.5004 197.369C83.3493 198.027 83.052 198.643 82.6304 199.17C82.2089 199.698 81.674 200.124 81.0654 200.417C80.4567 200.71 79.79 200.862 79.1146 200.862Z" fill="#97283F"/>
<path d="M85.1224 186.862H61.1224C60.1941 186.862 59.3038 186.493 58.6475 185.837C57.9911 185.18 57.6224 184.29 57.6224 183.362C57.6224 182.434 57.9911 181.543 58.6475 180.887C59.3038 180.231 60.1941 179.862 61.1224 179.862H85.1224C86.0506 179.862 86.9409 180.231 87.5972 180.887C88.2536 181.543 88.6224 182.434 88.6224 183.362C88.6224 184.29 88.2536 185.18 87.5972 185.837C86.9409 186.493 86.0506 186.862 85.1224 186.862Z" fill="#3F3D56"/>
<path d="M60.1061 182.499C56.4337 181.581 52.5999 181.518 48.899 182.313C45.1981 183.108 41.7286 184.74 38.7568 187.085C35.8323 189.486 33.5082 192.537 31.9693 195.994C30.4304 199.451 29.7192 203.22 29.892 207C30.6241 223.339 47.0731 232.121 58.5391 240.908C72.0887 251.292 84.8076 263.273 93.9888 277.779C103.081 292.144 108.783 309.166 107.462 326.31C106.319 341.139 99.5993 355.84 88.0751 365.436C86.6227 366.637 85.0977 367.748 83.5088 368.762C81.8899 369.802 83.3925 372.4 85.023 371.352C97.6499 363.236 106.003 349.706 109.166 335.17C112.686 318.997 109.55 302.162 102.632 287.315C95.446 271.893 84.1419 258.781 71.4398 247.618C65.1393 242.08 58.447 237.054 51.669 232.123C45.709 227.788 39.4617 223.118 35.7576 216.59C33.9287 213.389 32.9478 209.774 32.9082 206.088C32.8685 202.402 33.7713 198.766 35.531 195.527C37.3677 192.268 40.0336 189.553 43.2581 187.657C46.4827 185.761 50.1513 184.751 53.892 184.73C55.7187 184.713 57.5398 184.935 59.3087 185.392C61.1801 185.87 61.9784 182.977 60.1061 182.499Z" fill="#3F3D56"/>
<path d="M26.1224 117.862C24.4134 117.86 22.7738 117.186 21.5577 115.985C20.3416 114.784 19.6467 113.154 19.6229 111.445C14.2711 95.8355 14.2711 78.8882 19.6229 63.2789C19.6439 61.5617 20.3436 59.9227 21.5692 58.7198C22.7948 57.5168 24.4466 56.8478 26.1639 56.8587C27.8811 56.8697 29.5243 57.5598 30.7344 58.7783C31.9445 59.9967 32.6232 61.6446 32.6224 63.3619L32.5919 63.5342C26.9087 79.023 26.9095 95.0586 32.5941 111.196L32.6224 111.362C32.6204 113.085 31.935 114.737 30.7164 115.956C29.4979 117.174 27.8457 117.86 26.1224 117.862Z" fill="white"/>
</svg>
