<svg width="898" height="227" viewBox="0 0 898 227" fill="none" xmlns="http://www.w3.org/2000/svg">
<path d="M113.397 185.017C112.887 184.989 112.398 184.802 112 184.483C111.601 184.164 111.312 183.728 111.174 183.236L98.321 140.065C98.2123 139.7 98.1884 139.315 98.2511 138.94C98.3137 138.564 98.4613 138.208 98.6824 137.898C98.9036 137.589 99.1926 137.333 99.5274 137.152C99.8621 136.971 100.234 136.869 100.614 136.853L126.797 135.776C127.195 135.76 127.592 135.839 127.953 136.007C128.315 136.175 128.631 136.427 128.875 136.742C129.119 137.057 129.285 137.426 129.358 137.818C129.43 138.21 129.408 138.613 129.294 138.995L115.963 183.244C115.815 183.763 115.5 184.218 115.066 184.54C114.633 184.862 114.105 185.031 113.566 185.023C113.509 185.023 113.452 185.021 113.397 185.017Z" fill="#E6E6E6"/>
<path d="M239.429 175.537C238.921 175.592 238.409 175.486 237.964 175.235C237.519 174.984 237.164 174.6 236.948 174.137L217.312 133.599C217.146 133.256 217.06 132.88 217.062 132.5C217.063 132.119 217.151 131.744 217.32 131.403C217.488 131.061 217.732 130.763 218.034 130.53C218.335 130.298 218.685 130.137 219.058 130.06L244.726 124.781C245.116 124.701 245.52 124.715 245.904 124.823C246.288 124.93 246.641 125.128 246.932 125.4C247.224 125.671 247.447 126.009 247.582 126.384C247.717 126.759 247.76 127.161 247.708 127.556L241.677 173.374C241.614 173.91 241.376 174.41 241 174.797C240.624 175.185 240.131 175.437 239.597 175.516C239.541 175.525 239.485 175.532 239.429 175.537Z" fill="#E6E6E6"/>
<path d="M378.308 128.064C377.837 128.262 377.316 128.308 376.818 128.196C376.32 128.083 375.869 127.818 375.529 127.437L345.06 94.2617C344.802 93.9813 344.612 93.6459 344.504 93.281C344.396 92.9161 344.372 92.5313 344.435 92.156C344.499 91.7806 344.646 91.4246 344.868 91.1151C345.09 90.8057 345.379 90.5508 345.714 90.3701L368.778 77.9293C369.129 77.7402 369.52 77.6376 369.918 77.6303C370.317 77.623 370.711 77.711 371.069 77.8872C371.426 78.0633 371.737 78.3224 371.974 78.6428C372.211 78.9632 372.368 79.3357 372.432 79.7291L379.838 125.345C379.932 125.876 379.848 126.424 379.599 126.903C379.351 127.382 378.951 127.766 378.462 127.995C378.411 128.019 378.359 128.043 378.308 128.064Z" fill="#E6E6E6"/>
<path d="M865.461 182.163C816.366 182.163 766.666 174.805 717.298 160.198C669.351 146.012 621.609 124.995 575.398 97.731C502.628 54.7974 456.446 9.54448 449.549 2.60357C423.485 43.9244 383.898 76.5279 331.869 99.5157C289.939 118.042 239.876 130.4 183.071 136.247C86.4058 146.199 2.55864 133.644 1.72295 133.516C1.46078 133.476 1.22529 133.333 1.06829 133.119C0.91129 132.905 0.845649 132.638 0.885794 132.376C0.925938 132.114 1.06858 131.878 1.28235 131.721C1.49613 131.564 1.76351 131.498 2.02569 131.539C2.85907 131.667 86.491 144.185 182.909 134.253C271.772 125.101 389.988 94.461 448.525 0.470749C448.606 0.341524 448.715 0.232391 448.844 0.151664C448.973 0.0709374 449.119 0.0207519 449.27 0.0049283C449.422 -0.0108954 449.575 0.00806025 449.718 0.0603558C449.861 0.112651 449.99 0.196907 450.095 0.306694C450.565 0.795954 498.01 49.7598 576.468 96.0401C648.843 138.732 763.169 187.808 896.81 179.151C897.074 179.134 897.335 179.223 897.534 179.398C897.733 179.573 897.854 179.82 897.872 180.085C897.889 180.349 897.8 180.61 897.625 180.809C897.45 181.008 897.204 181.13 896.939 181.148C886.48 181.825 875.987 182.163 865.461 182.163Z" fill="#CCCCCC"/>
<path d="M821.579 225.965C821.076 225.88 820.611 225.64 820.251 225.278C819.891 224.916 819.653 224.45 819.57 223.947L811.629 179.608C811.562 179.233 811.581 178.848 811.686 178.482C811.79 178.116 811.976 177.779 812.231 177.496C812.485 177.213 812.801 176.991 813.154 176.849C813.507 176.706 813.888 176.646 814.267 176.673L840.406 178.533C840.804 178.561 841.189 178.684 841.529 178.892C841.87 179.099 842.156 179.385 842.363 179.725C842.571 180.066 842.694 180.451 842.722 180.848C842.751 181.246 842.684 181.645 842.527 182.011L824.329 224.49C824.123 224.989 823.759 225.407 823.292 225.678C822.825 225.949 822.282 226.058 821.747 225.99C821.691 225.983 821.635 225.975 821.579 225.965Z" fill="#E6E6E6"/>
<path d="M682.064 196.925C681.592 196.73 681.192 196.393 680.921 195.96C680.65 195.527 680.521 195.02 680.553 194.511L682.648 149.515C682.665 149.135 682.77 148.764 682.952 148.43C683.135 148.096 683.392 147.809 683.703 147.589C684.014 147.37 684.371 147.224 684.747 147.163C685.122 147.103 685.507 147.129 685.871 147.239L710.946 154.852C711.328 154.968 711.676 155.173 711.962 155.451C712.248 155.729 712.463 156.071 712.59 156.449C712.716 156.827 712.751 157.23 712.691 157.624C712.63 158.018 712.476 158.392 712.242 158.714L685.072 196.097C684.761 196.538 684.313 196.864 683.798 197.024C683.283 197.185 682.729 197.172 682.222 196.986C682.169 196.967 682.116 196.947 682.064 196.925Z" fill="#E6E6E6"/>
</svg>
