<svg width="194" height="175" viewBox="0 0 194 175" fill="none" xmlns="http://www.w3.org/2000/svg">
<path opacity="0.5" d="M72.8513 26.8238C70.4313 23.5338 65.4313 27.1038 67.6913 30.5138C68.2813 31.4038 68.9313 32.2638 69.5413 33.0938C76.9913 43.0938 80.8513 55.3638 84.1813 67.4438C84.9913 70.4438 85.7813 73.5638 84.8513 76.4438C86.1813 68.6038 85.3214 60.5038 83.3114 52.8038C81.3014 45.1038 78.1713 37.7938 74.9413 30.5238C74.3763 29.2206 73.6758 27.9805 72.8513 26.8238Z" fill="#6C63FF"/>
<path d="M24.5013 47.9838C19.5013 47.8338 18.8413 55.4538 23.8413 55.8538C25.1513 55.9638 26.4813 55.9938 27.7413 56.0238C43.1313 56.4438 57.6913 62.0238 71.6813 68.0238C75.1113 69.4938 78.6813 71.1438 80.6813 74.2938C74.3713 66.9838 66.0713 61.6338 57.2413 57.6938C48.4113 53.7538 39.0013 51.1738 29.6013 48.7638C27.934 48.3226 26.2243 48.0611 24.5013 47.9838Z" fill="#6C63FF"/>
<path opacity="0.5" d="M90.8513 150.594C91.7513 153.644 95.9513 151.824 95.1813 148.724C94.9813 147.914 94.7313 147.114 94.5013 146.354C91.7113 137.044 91.8413 126.744 92.3013 116.674C92.4213 114.194 92.5913 111.574 93.8813 109.464C91.3213 115.406 89.8773 121.769 89.6213 128.234C89.3717 134.598 89.589 140.972 90.2713 147.304C90.3549 148.417 90.5492 149.519 90.8513 150.594Z" fill="#6C63FF"/>
<path d="M2.17131 96.3638C-2.67869 98.8638 1.42131 105.714 6.40131 103.444C7.70131 102.844 8.97132 102.174 10.1913 101.544C25.0013 93.8638 42.1913 91.0338 59.1913 88.8538C63.3413 88.3238 67.7713 87.8538 71.6113 89.4938C61.1413 86.5438 49.9813 86.2938 39.2013 87.5538C28.4213 88.8138 17.9313 91.5038 7.55132 94.3538C5.69527 94.8422 3.8929 95.5155 2.17131 96.3638Z" fill="#6C63FF"/>
<path opacity="0.5" d="M16.0214 123.034C12.5414 126.284 18.0214 130.124 21.6314 127.034C22.6314 126.224 23.5013 125.364 24.3713 124.544C34.9913 114.544 49.0214 107.484 62.9914 100.944C66.4214 99.3338 80.5414 97.7038 84.3014 97.7938C74.4614 98.6738 54.3613 101.794 45.4213 105.794C36.6567 109.963 28.1841 114.721 20.0613 120.034C18.623 120.904 17.2703 121.909 16.0214 123.034Z" fill="#6C63FF"/>
<path d="M40.8813 165.594C39.8813 170.244 46.5113 170.314 47.7513 165.664C48.0713 164.454 48.3313 163.224 48.5813 162.054C51.6513 147.824 59.1613 134.004 66.9413 120.684C68.8513 117.414 79.5313 108.044 82.6813 105.974C75.0813 112.294 60.2913 126.254 55.2513 134.674C50.409 143.087 46.1393 151.817 42.4713 160.804C41.7953 162.348 41.2631 163.952 40.8813 165.594Z" fill="#6C63FF"/>
<path d="M90.9113 2.1938C88.5313 -2.6462 81.7513 1.3338 83.9113 6.2938C84.4713 7.5938 85.1013 8.8638 85.7013 10.0738C93.0113 24.8638 95.5213 41.9538 97.4013 58.7638C97.8613 62.8838 98.2613 67.2838 96.5813 71.0738C99.6413 60.7238 100.051 49.6738 98.9913 38.9738C97.9313 28.2738 95.4413 17.8438 92.8013 7.5138C92.3501 5.68194 91.7169 3.89975 90.9113 2.1938Z" fill="#6C63FF"/>
<path d="M53.1013 10.4238C53.2255 10.4996 53.3662 10.5442 53.5113 10.5538C53.7813 10.5538 53.9613 10.2838 54.0713 10.0438C54.6613 8.7538 54.3213 7.0438 55.2413 6.0438C56.1583 7.13807 56.9035 8.36544 57.4513 9.6838L60.9313 8.6838C61.0983 9.36045 61.1258 10.064 61.0124 10.7516C60.8989 11.4393 60.6468 12.0966 60.2713 12.6838C60.8849 12.9483 61.4417 13.3286 61.9113 13.8038C62.1475 14.0399 62.3129 14.3373 62.3889 14.6624C62.4649 14.9876 62.4484 15.3275 62.3413 15.6438C61.5367 15.8387 60.7085 15.9195 59.8813 15.8838C60.0102 17.4151 59.9227 18.9569 59.6213 20.4638C59.6132 20.5757 59.5823 20.6848 59.5308 20.7845C59.4792 20.8842 59.408 20.9724 59.3213 21.0438C59.0713 21.2038 58.7313 21.0438 58.4713 20.9038C57.271 20.1724 56.2846 19.1377 55.6113 17.9038L54.3114 20.9938C54.2199 21.3132 54.0179 21.5897 53.7413 21.7738C53.5434 21.8425 53.3281 21.8424 53.1302 21.7734C52.9324 21.7044 52.7637 21.5707 52.6513 21.3938C52.4333 21.0396 52.303 20.6385 52.2713 20.2238L51.7813 17.2838C51.7756 17.13 51.7194 16.9824 51.6213 16.8638C51.4754 16.7532 51.294 16.6999 51.1113 16.7138C49.878 16.7138 48.648 16.7138 47.4213 16.7138C47.2113 16.0538 47.8613 15.4538 48.4913 15.1738C49.1213 14.8938 49.8613 14.6938 50.1813 14.0838C50.8213 12.8338 49.1813 11.0838 49.8713 10.0338C50.6913 8.6838 52.0313 9.8938 53.1013 10.4238Z" fill="#6C63FF"/>
<path opacity="0.5" d="M120.321 26.8238C122.741 23.5338 127.741 27.1038 125.481 30.5138C124.891 31.4038 124.241 32.2638 123.631 33.0938C116.181 43.0938 112.311 55.3638 108.991 67.4438C108.171 70.4438 107.381 73.5638 108.311 76.4438C106.981 68.6038 107.851 60.5038 109.861 52.8038C111.871 45.1038 115.001 37.7438 118.231 30.4738C118.799 29.1879 119.5 27.9647 120.321 26.8238Z" fill="#6C63FF"/>
<path d="M168.661 47.9838C173.661 47.8338 174.331 55.4538 169.321 55.8538C168.011 55.9638 166.691 55.9938 165.431 56.0238C150.031 56.4438 135.481 62.0238 121.491 68.0238C118.061 69.4938 114.491 71.1438 112.491 74.2938C118.791 66.9838 127.091 61.6338 135.931 57.6938C144.771 53.7538 154.171 51.1838 163.531 48.7738C165.208 48.3271 166.928 48.0622 168.661 47.9838Z" fill="#6C63FF"/>
<path opacity="0.5" d="M167.281 66.6838C170.451 66.8038 169.741 71.3138 166.541 71.3438C165.711 71.3438 164.871 71.3438 164.071 71.2738C154.361 70.8838 144.421 73.5638 134.781 76.5138C132.411 77.2338 129.911 78.0538 128.191 79.8238C133.312 75.8701 139.115 72.8907 145.311 71.0338C151.418 69.2202 157.647 67.85 163.951 66.9338C165.05 66.7405 166.166 66.6568 167.281 66.6838Z" fill="#6C63FF"/>
<path opacity="0.2" d="M161.491 22.5938C163.411 22.2638 163.551 25.0438 161.651 25.4738C161.151 25.5838 160.651 25.6638 160.161 25.7438C154.311 26.7438 148.721 29.6038 143.331 32.5938C141.944 33.225 140.737 34.1946 139.821 35.4138C142.375 32.3973 145.463 29.8784 148.931 27.9838C152.341 26.1211 155.884 24.5134 159.531 23.1738C160.164 22.9171 160.821 22.7228 161.491 22.5938Z" fill="#6C63FF"/>
<path opacity="0.2" d="M111.751 156.364C111.321 158.264 108.691 157.364 109.041 155.364C109.131 154.854 109.241 154.364 109.351 153.884C110.691 148.104 110.201 141.834 109.531 135.714C109.48 134.189 109.051 132.701 108.281 131.384C110.08 134.913 111.213 138.744 111.621 142.684C112.022 146.553 112.139 150.447 111.971 154.334C111.964 155.016 111.89 155.696 111.751 156.364Z" fill="#6C63FF"/>
<path opacity="0.5" d="M160.271 143.794C161.761 146.324 158.101 146.144 156.491 143.614C156.061 142.954 155.681 142.294 155.301 141.614C150.761 133.884 143.841 126.234 136.881 118.844C135.229 116.926 133.302 115.265 131.161 113.914C136.614 117.619 141.645 121.911 146.161 126.714C150.631 131.394 154.581 136.264 158.451 141.134C159.118 141.978 159.726 142.866 160.271 143.794Z" fill="#6C63FF"/>
<path opacity="0.2" d="M27.4914 143.794C26.0014 146.324 29.6713 146.144 31.2813 143.614C31.7013 142.954 32.0913 142.294 32.4613 141.614C37.0013 133.884 43.9213 126.234 50.8913 118.844C52.5396 116.926 54.464 115.265 56.6013 113.914C51.1522 117.624 46.1226 121.916 41.6013 126.714C37.1313 131.394 33.1813 136.264 29.3213 141.134C28.6513 141.978 28.0398 142.866 27.4914 143.794Z" fill="#6C63FF"/>
<path opacity="0.2" d="M76.0513 156.364C76.4813 158.264 79.1013 157.364 78.7613 155.364C78.6713 154.854 78.5513 154.364 78.4413 153.884C77.1113 148.104 77.5913 141.834 78.2713 135.714C78.3236 134.191 78.7494 132.704 79.5113 131.384C77.712 134.913 76.5797 138.744 76.1713 142.684C75.7671 146.553 75.6468 150.447 75.8113 154.334C75.8252 155.017 75.9056 155.697 76.0513 156.364Z" fill="#6C63FF"/>
<path opacity="0.2" d="M146.171 41.5938C148.081 41.2538 148.221 44.0438 146.321 44.4638C145.821 44.5738 145.321 44.6638 144.841 44.7438C138.991 45.7438 133.391 48.6038 128.001 51.5838C126.618 52.2214 125.412 53.1899 124.491 54.4038C127.047 51.3925 130.135 48.8773 133.601 46.9838C137.016 45.1219 140.562 43.511 144.211 42.1638C144.844 41.9074 145.5 41.7165 146.171 41.5938Z" fill="#6C63FF"/>
<path opacity="0.2" d="M128.351 4.2938C130.001 3.2938 131.171 5.8038 129.571 6.9038C129.141 7.1938 128.711 7.4638 128.291 7.7138C123.241 10.8238 119.121 15.5738 115.241 20.3538C114.193 21.4627 113.434 22.8124 113.031 24.2838C114.28 20.5355 116.205 17.0478 118.711 13.9938C121.168 10.9916 123.842 8.17404 126.711 5.5638C127.216 5.08925 127.765 4.66399 128.351 4.2938Z" fill="#6C63FF"/>
<path d="M191.001 96.3638C195.851 98.8638 191.751 105.714 186.771 103.444C185.471 102.844 184.191 102.174 182.981 101.544C168.161 93.8638 150.981 91.0338 133.981 88.8538C129.831 88.3238 125.401 87.8538 121.561 89.4938C132.031 86.5438 143.181 86.2938 153.971 87.5538C164.761 88.8138 175.231 91.5038 185.621 94.3538C187.477 94.8441 189.279 95.5174 191.001 96.3638Z" fill="#6C63FF"/>
<path opacity="0.5" d="M177.171 123.034C180.651 126.284 175.171 130.124 171.561 127.034C170.561 126.224 169.691 125.364 168.821 124.544C158.171 114.534 144.171 107.444 130.171 100.904C126.741 99.2938 112.621 97.6638 108.851 97.7538C118.701 98.6338 138.801 101.754 147.741 105.754C156.506 109.923 164.979 114.681 173.101 119.994C174.552 120.875 175.915 121.893 177.171 123.034Z" fill="#6C63FF"/>
<path d="M136.091 170.904C136.521 175.644 129.911 174.904 129.271 170.114C129.101 168.874 129.001 167.624 128.891 166.434C127.631 151.924 121.891 137.274 115.891 123.084C114.401 119.604 104.981 108.964 102.111 106.524C108.861 113.744 121.781 129.444 125.731 138.434C129.483 147.385 132.627 156.579 135.141 165.954C135.611 167.571 135.929 169.228 136.091 170.904Z" fill="#6C63FF"/>
<path d="M140.061 10.4238C139.938 10.5012 139.797 10.5459 139.651 10.5538C139.391 10.5538 139.211 10.2838 139.101 10.0438C138.501 8.7538 138.841 7.0438 137.931 6.0438C137.014 7.13807 136.269 8.36544 135.721 9.6838L132.231 8.6838C132.067 9.36066 132.04 10.0638 132.154 10.751C132.267 11.4383 132.518 12.0957 132.891 12.6838C132.279 12.9507 131.723 13.3307 131.251 13.8038C131.019 14.0422 130.857 14.3401 130.783 14.6647C130.708 14.9894 130.725 15.3281 130.831 15.6438C131.636 15.8387 132.464 15.9195 133.291 15.8838C133.158 17.415 133.245 18.9575 133.551 20.4638C133.56 20.5757 133.59 20.6848 133.642 20.7845C133.693 20.8842 133.765 20.9724 133.851 21.0438C134.101 21.2038 134.441 21.0438 134.701 20.9038C135.896 20.1656 136.881 19.1325 137.561 17.9038L138.861 20.9938C138.945 21.3169 139.149 21.5959 139.431 21.7738C139.629 21.8425 139.845 21.8424 140.042 21.7734C140.24 21.7044 140.409 21.5707 140.521 21.3938C140.735 21.0376 140.865 20.6376 140.901 20.2238L141.391 17.2838C141.397 17.13 141.453 16.9824 141.551 16.8638C141.697 16.7532 141.879 16.6999 142.061 16.7138C143.295 16.7138 144.525 16.7138 145.751 16.7138C145.961 16.0538 145.311 15.4538 144.681 15.1738C144.051 14.8938 143.301 14.6938 142.991 14.0838C142.351 12.8338 143.991 11.0838 143.301 10.0338C142.481 8.6838 141.171 9.8938 140.061 10.4238Z" fill="#6C63FF"/>
<path opacity="0.2" d="M150.571 153.834C150.447 153.907 150.306 153.948 150.161 153.954C149.891 153.954 149.711 153.684 149.601 153.444C149.011 152.164 149.351 150.494 148.441 149.444C147.512 150.557 146.763 151.809 146.221 153.154L142.741 152.084C142.575 152.76 142.548 153.464 142.661 154.151C142.775 154.839 143.026 155.496 143.401 156.084C142.788 156.345 142.231 156.722 141.761 157.194C141.528 157.432 141.365 157.729 141.289 158.054C141.213 158.378 141.228 158.717 141.331 159.034C142.136 159.232 142.964 159.316 143.791 159.284C143.662 160.812 143.75 162.35 144.051 163.854C144.074 164.081 144.181 164.292 144.351 164.444C144.611 164.604 144.941 164.444 145.201 164.294C146.404 163.565 147.391 162.53 148.061 161.294L149.361 164.384C149.456 164.702 149.662 164.975 149.941 165.154C150.137 165.225 150.35 165.227 150.547 165.159C150.743 165.092 150.911 164.959 151.021 164.784C151.237 164.428 151.37 164.028 151.411 163.614L151.891 160.664C151.897 160.51 151.953 160.362 152.051 160.244C152.202 160.135 152.387 160.085 152.571 160.104C153.791 160.104 155.021 160.054 156.251 160.104C156.461 159.454 155.811 158.844 155.181 158.564C154.551 158.284 153.811 158.084 153.491 157.474C152.851 156.234 154.491 154.474 153.801 153.474C152.981 152.054 151.641 153.304 150.571 153.834Z" fill="#6C63FF"/>
<path d="M180.081 57.6838C179.958 57.7612 179.816 57.8027 179.671 57.8038C179.401 57.8038 179.221 57.5438 179.111 57.3038C178.521 56.0138 178.861 54.3038 177.941 53.3038C177.018 54.423 176.273 55.6777 175.731 57.0238L172.251 55.9438C172.085 56.6205 172.058 57.3239 172.171 58.0115C172.285 58.699 172.536 59.3564 172.911 59.9438C172.3 60.2083 171.744 60.5848 171.271 61.0538C171.035 61.2921 170.87 61.5912 170.794 61.9179C170.718 62.2445 170.735 62.5859 170.841 62.9038C171.646 63.0987 172.474 63.1795 173.301 63.1438C173.173 64.6751 173.26 66.2169 173.561 67.7238C173.57 67.8357 173.6 67.9448 173.652 68.0445C173.703 68.1442 173.775 68.2324 173.861 68.3038C174.111 68.4638 174.451 68.3038 174.711 68.1638C175.912 67.4324 176.898 66.3977 177.571 65.1638L178.871 68.2538C178.963 68.5732 179.165 68.8497 179.441 69.0338C179.639 69.1007 179.854 69.0996 180.052 69.0308C180.249 68.962 180.418 68.8293 180.531 68.6538C180.749 68.2996 180.88 67.8985 180.911 67.4838L181.401 64.4838C181.409 64.3335 181.465 64.1897 181.561 64.0738C181.707 63.9632 181.889 63.9099 182.071 63.9238C183.301 63.9238 184.531 63.9238 185.761 63.9238C185.971 63.2738 185.321 62.6638 184.691 62.3938C184.061 62.1238 183.321 61.9138 183.001 61.3038C182.361 60.0538 184.001 58.3038 183.311 57.3038C182.491 55.9338 181.171 57.1738 180.081 57.6838Z" fill="#6C63FF"/>
<path d="M13.0213 60.5738C12.8458 60.6794 12.646 60.738 12.4413 60.7438C12.0813 60.7438 11.8213 60.3738 11.6713 60.0438C10.8413 58.2438 11.3213 55.9138 10.0513 54.4038C8.75593 55.9577 7.71316 57.7057 6.9613 59.5838L2.11131 58.0738C1.88085 59.0141 1.84266 59.9912 1.99903 60.9466C2.1554 61.9021 2.50312 62.816 3.02131 63.6338C2.16942 64.0048 1.39572 64.5342 0.741311 65.1938C0.416301 65.5246 0.188434 65.9383 0.0826194 66.3897C-0.023195 66.8412 -0.00289282 67.3131 0.141305 67.7538C1.26274 68.0298 2.41724 68.1476 3.5713 68.1038C3.3892 70.2339 3.51382 72.3791 3.94131 74.4738C3.9293 74.6646 3.97837 74.8543 4.0814 75.0153C4.18443 75.1764 4.33607 75.3004 4.51434 75.3695C4.69261 75.4386 4.88825 75.4491 5.0729 75.3995C5.25755 75.35 5.4216 75.2429 5.5413 75.0938C7.22309 74.0553 8.60248 72.5932 9.5413 70.8538L11.3413 75.1638C11.47 75.6108 11.7582 75.9951 12.1513 76.2438C12.4248 76.3393 12.7225 76.3399 12.9965 76.2456C13.2704 76.1512 13.5046 75.9674 13.6613 75.7238C13.965 75.2266 14.1466 74.6646 14.1913 74.0838L14.8713 69.9838C14.8813 69.772 14.9583 69.5689 15.0913 69.4038C15.2964 69.2466 15.5545 69.1749 15.8113 69.2038C17.5213 69.2038 19.2313 69.1338 20.9513 69.1438C21.2413 68.2338 20.3313 67.3938 19.4613 67.0038C18.5913 66.6138 17.5413 66.3338 17.1013 65.4838C16.2113 63.7538 18.5213 61.3438 17.5413 59.8438C16.3813 58.1038 14.5113 59.8338 13.0213 60.5738Z" fill="#6C63FF"/>
<path opacity="0.2" d="M161.961 127.234C161.871 127.291 161.768 127.322 161.661 127.324C161.461 127.324 161.331 127.124 161.241 126.954C160.801 125.954 161.061 124.764 160.381 123.954C159.697 124.781 159.144 125.709 158.741 126.704L156.161 125.904C156.038 126.411 156.018 126.938 156.102 127.454C156.186 127.969 156.373 128.462 156.651 128.904C156.198 129.095 155.787 129.374 155.441 129.724C155.268 129.899 155.147 130.119 155.09 130.359C155.034 130.599 155.044 130.85 155.121 131.084C155.716 131.231 156.329 131.295 156.941 131.274C156.848 132.404 156.915 133.542 157.141 134.654C157.146 134.737 157.168 134.818 157.206 134.892C157.244 134.966 157.297 135.031 157.361 135.084C157.466 135.126 157.579 135.139 157.69 135.121C157.801 135.103 157.905 135.056 157.991 134.984C158.879 134.428 159.609 133.653 160.111 132.734L161.111 135.024C161.177 135.259 161.326 135.461 161.531 135.594C161.677 135.646 161.836 135.648 161.983 135.599C162.13 135.55 162.256 135.453 162.341 135.324C162.501 135.059 162.596 134.762 162.621 134.454L162.981 132.274C162.989 132.161 163.031 132.053 163.101 131.964C163.154 131.92 163.214 131.888 163.28 131.869C163.345 131.85 163.414 131.845 163.481 131.854H166.211C166.361 131.374 165.881 130.924 165.411 130.724C164.941 130.524 164.411 130.364 164.161 129.914C163.691 128.994 164.921 127.714 164.401 126.914C163.881 126.114 162.751 126.834 161.961 127.234Z" fill="#6C63FF"/>
<path opacity="0.2" d="M95.2813 165.734C95.1882 165.783 95.0863 165.814 94.9813 165.824C94.8857 165.802 94.7975 165.755 94.7255 165.689C94.6536 165.622 94.6004 165.537 94.5713 165.444C94.1313 164.494 94.3813 163.254 93.7013 162.444C93.015 163.27 92.4617 164.197 92.0613 165.194L89.4913 164.394C89.3695 164.893 89.3492 165.411 89.4317 165.918C89.5141 166.424 89.6976 166.909 89.9713 167.344C89.5224 167.547 89.1128 167.828 88.7613 168.174C88.588 168.349 88.4665 168.569 88.4101 168.809C88.3536 169.049 88.3644 169.3 88.4413 169.534C89.0358 169.683 89.6491 169.744 90.2613 169.714C90.1669 170.848 90.2343 171.989 90.4613 173.104C90.4674 173.187 90.4899 173.267 90.5277 173.341C90.5655 173.415 90.6177 173.48 90.6813 173.534C90.8713 173.654 91.1213 173.534 91.3113 173.434C92.1995 172.878 92.9296 172.103 93.4313 171.184L94.4313 173.474C94.4971 173.709 94.6465 173.911 94.8513 174.044C94.9983 174.093 95.1576 174.093 95.3042 174.042C95.4508 173.992 95.5764 173.894 95.6613 173.764C95.8205 173.499 95.9164 173.202 95.9413 172.894L96.3013 170.714C96.3091 170.604 96.3511 170.499 96.4213 170.414C96.5285 170.328 96.6651 170.289 96.8013 170.304C97.7146 170.304 98.6246 170.304 99.5313 170.304C99.6813 169.824 99.2013 169.374 98.7413 169.164C98.2813 168.954 97.7413 168.814 97.4913 168.354C97.0113 167.434 98.2413 166.154 97.7213 165.354C97.2013 164.554 96.0813 165.334 95.2813 165.734Z" fill="#6C63FF"/>
<path opacity="0.5" d="M30.7513 30.9938C30.6588 31.0446 30.5565 31.0752 30.4513 31.0838C30.3557 31.0619 30.2675 31.0153 30.1955 30.9486C30.1236 30.8819 30.0704 30.7975 30.0413 30.7038C29.6013 29.7038 29.8513 28.5138 29.1813 27.7038C28.488 28.5247 27.934 29.4537 27.5413 30.4538L24.9613 29.6538C24.8315 30.1606 24.808 30.6888 24.8924 31.2051C24.9767 31.7214 25.167 32.2146 25.4513 32.6538C24.998 32.8548 24.5847 33.136 24.2313 33.4838C24.0588 33.6596 23.9385 33.8798 23.8837 34.1199C23.829 34.36 23.842 34.6106 23.9213 34.8438C24.5157 34.994 25.1291 35.0547 25.7413 35.0238C25.6437 36.1571 25.7076 37.2985 25.9313 38.4138C25.9374 38.4966 25.9599 38.5772 25.9977 38.6511C26.0355 38.725 26.0877 38.7905 26.1513 38.8438C26.3413 38.9638 26.5913 38.8438 26.7813 38.7438C27.6724 38.1918 28.4033 37.4161 28.9013 36.4938L29.9013 38.7838C29.9696 39.0202 30.1227 39.2232 30.3313 39.3538C30.4768 39.4028 30.6345 39.4018 30.7794 39.3511C30.9243 39.3004 31.0481 39.2028 31.1313 39.0738C31.2906 38.8093 31.3864 38.5115 31.4113 38.2038L31.7713 36.0238C31.7778 35.9134 31.8199 35.8082 31.8913 35.7238C31.9986 35.6385 32.1351 35.599 32.2713 35.6138C33.1847 35.6138 34.0947 35.6138 35.0013 35.6138C35.1613 35.1338 34.6713 34.6838 34.2113 34.4738C33.7513 34.2638 33.2113 34.1238 32.9613 33.6638C32.4813 32.7438 33.7113 31.4638 33.1913 30.6638C32.6713 29.8638 31.5513 30.5938 30.7513 30.9938Z" fill="#6C63FF"/>
<path opacity="0.5" d="M65.1013 106.914C65.0083 106.972 64.901 107.003 64.7913 107.004C64.6013 107.004 64.4613 106.814 64.3813 106.634C63.9413 105.684 64.1913 104.444 63.5213 103.634C62.8316 104.457 62.278 105.386 61.8813 106.384L59.3013 105.584C59.1763 106.091 59.1552 106.618 59.2394 107.134C59.3236 107.649 59.5114 108.143 59.7913 108.584C59.3402 108.783 58.93 109.065 58.5813 109.414C58.4071 109.588 58.2849 109.808 58.2283 110.048C58.1718 110.289 58.1832 110.54 58.2613 110.774C58.8557 110.924 59.4691 110.984 60.0813 110.954C59.9837 112.087 60.0476 113.229 60.2713 114.344C60.2886 114.509 60.3671 114.663 60.4913 114.774C60.6813 114.894 60.9313 114.774 61.1213 114.664C62.0135 114.118 62.745 113.345 63.2413 112.424L64.2413 114.714C64.3159 114.947 64.4675 115.148 64.6713 115.284C64.8167 115.335 64.975 115.335 65.1203 115.284C65.2656 115.233 65.3893 115.134 65.4713 115.004C65.634 114.74 65.7333 114.442 65.7613 114.134L66.1213 111.954C66.1228 111.842 66.1656 111.735 66.2413 111.654C66.2935 111.61 66.3543 111.578 66.4197 111.559C66.4852 111.54 66.5538 111.535 66.6213 111.544C67.5313 111.544 68.4413 111.544 69.3413 111.544C69.5013 111.064 69.0213 110.614 68.5513 110.404C68.0813 110.194 67.5513 110.044 67.3013 109.594C66.8313 108.674 68.0613 107.394 67.5313 106.594C67.0013 105.794 65.8913 106.524 65.1013 106.914Z" fill="#6C63FF"/>
<path opacity="0.5" d="M40.1713 77.3138C40.0821 77.3722 39.9779 77.4035 39.8713 77.4038C39.6713 77.4038 39.5413 77.2138 39.4613 77.0338C39.0213 76.0838 39.2713 74.8438 38.5913 74.0338C37.905 74.8597 37.3517 75.7875 36.9513 76.7838L34.3813 75.9838C34.2525 76.4902 34.2286 77.0175 34.3111 77.5334C34.3937 78.0494 34.5809 78.5429 34.8613 78.9838C34.4124 79.1873 34.0028 79.4683 33.6513 79.8138C33.4771 79.9885 33.3549 80.2082 33.2984 80.4484C33.2418 80.6886 33.2533 80.9397 33.3313 81.1738C33.9258 81.3231 34.5391 81.3838 35.1513 81.3538C35.0569 82.4876 35.1243 83.629 35.3513 84.7438C35.3573 84.8265 35.3799 84.9072 35.4177 84.9811C35.4555 85.055 35.5077 85.1205 35.5713 85.1738C35.7613 85.2938 36.0113 85.1738 36.2013 85.0638C37.0935 84.5176 37.825 83.7447 38.3213 82.8238L39.3213 85.1138C39.3871 85.3487 39.5365 85.5514 39.7413 85.6838C39.8883 85.7335 40.0476 85.7329 40.1942 85.6822C40.3408 85.6316 40.4664 85.5336 40.5513 85.4038C40.7105 85.1393 40.8064 84.8415 40.8313 84.5338L41.1913 82.3538C41.1977 82.2434 41.2399 82.1382 41.3113 82.0538C41.4185 81.9685 41.5551 81.929 41.6913 81.9438C42.598 81.9438 43.508 81.9438 44.4213 81.9438C44.5713 81.4638 44.0913 81.0138 43.6313 80.8038C43.1713 80.5938 42.6313 80.4438 42.3813 79.9938C41.9013 79.0738 43.1313 77.7938 42.6113 76.9938C42.0913 76.1938 40.9713 76.9238 40.1713 77.3138Z" fill="#6C63FF"/>
<path opacity="0.5" d="M147.231 84.2838C147.141 84.3407 147.038 84.3719 146.931 84.3738C146.731 84.3738 146.601 84.1838 146.511 84.0038C146.081 83.0538 146.331 81.8138 145.651 81.0038C144.965 81.8297 144.412 82.7575 144.011 83.7538L141.441 82.9538C141.319 83.4526 141.299 83.9708 141.382 84.4775C141.464 84.9843 141.648 85.4694 141.921 85.9038C141.468 86.0988 141.057 86.3808 140.711 86.7338C140.537 86.9085 140.415 87.1282 140.358 87.3684C140.302 87.6086 140.313 87.8597 140.391 88.0938C140.987 88.2382 141.599 88.2988 142.211 88.2738C142.117 89.4076 142.184 90.549 142.411 91.6638C142.417 91.7465 142.44 91.8272 142.478 91.9011C142.515 91.975 142.568 92.0405 142.631 92.0938C142.821 92.2138 143.071 92.0938 143.261 91.9838C144.149 91.4318 144.879 90.6603 145.381 89.7438L146.381 92.0238C146.445 92.2623 146.595 92.4689 146.801 92.6038C146.948 92.6535 147.108 92.6529 147.254 92.6023C147.401 92.5516 147.526 92.4536 147.611 92.3238C147.771 92.0593 147.866 91.7615 147.891 91.4538L148.251 89.2738C148.259 89.1607 148.301 89.0526 148.371 88.9638C148.48 88.883 148.616 88.8472 148.751 88.8638C149.658 88.8638 150.568 88.8638 151.481 88.8638C151.631 88.3838 151.151 87.9338 150.691 87.7238C150.231 87.5138 149.691 87.3638 149.441 86.9138C148.961 85.9938 150.191 84.7138 149.671 83.9138C149.151 83.1138 148.031 83.8938 147.231 84.2838Z" fill="#6C63FF"/>
<path opacity="0.2" d="M95.2813 78.4638C95.1921 78.5222 95.0879 78.5535 94.9813 78.5538C94.7813 78.5538 94.6513 78.3538 94.5713 78.1838C94.1313 77.1838 94.3813 75.9938 93.7013 75.1838C93.0193 76.0127 92.4664 76.9398 92.0613 77.9338L89.4913 77.1338C89.3636 77.6403 89.3404 78.1674 89.4229 78.6832C89.5054 79.1989 89.692 79.6925 89.9713 80.1338C89.521 80.3305 89.1109 80.6085 88.7613 80.9538C88.5872 81.1307 88.4652 81.3521 88.4087 81.5938C88.3523 81.8355 88.3635 82.0881 88.4413 82.3238C89.0375 82.4631 89.6494 82.5237 90.2613 82.5038C90.1679 83.6343 90.2352 84.7723 90.4613 85.8838C90.4649 85.9671 90.4865 86.0486 90.5244 86.1228C90.5624 86.197 90.6159 86.2622 90.6813 86.3138C90.8713 86.4438 91.1213 86.3138 91.3113 86.2138C92.2024 85.6619 92.9333 84.8861 93.4313 83.9638L94.4313 86.2538C94.4971 86.4887 94.6465 86.6914 94.8513 86.8238C94.9969 86.8781 95.1566 86.8809 95.304 86.8318C95.4513 86.7827 95.5774 86.6846 95.6613 86.5538C95.8205 86.2893 95.9164 85.9915 95.9413 85.6838L96.3013 83.5038C96.309 83.3907 96.3509 83.2826 96.4213 83.1938C96.5329 83.1173 96.6661 83.0787 96.8013 83.0838C97.7147 83.0838 98.6246 83.0838 99.5313 83.0838C99.6813 82.6038 99.2013 82.1538 98.7413 81.9538C98.2813 81.7538 97.7413 81.5938 97.4913 81.1438C97.0113 80.2238 98.2413 78.9438 97.7213 78.1438C97.2013 77.3438 96.0813 78.0738 95.2813 78.4638Z" fill="#6C63FF"/>
<path opacity="0.3" d="M78.9813 85.5538C78.8915 85.6107 78.7877 85.6419 78.6813 85.6438C78.4813 85.6438 78.3513 85.4538 78.2613 85.2738C77.8213 84.2738 78.0813 83.0838 77.4013 82.2738C76.7193 83.1027 76.1664 84.0298 75.7613 85.0238L73.1813 84.2338C73.0632 84.7334 73.0457 85.2516 73.1299 85.758C73.214 86.2645 73.398 86.7492 73.6713 87.1838C73.2201 87.3789 72.8097 87.657 72.4613 88.0038C72.2872 88.1807 72.1652 88.4021 72.1088 88.6438C72.0523 88.8855 72.0636 89.1381 72.1413 89.3738C72.7375 89.5131 73.3494 89.5737 73.9613 89.5538C73.8679 90.6876 73.9352 91.8289 74.1613 92.9438C74.1673 93.0265 74.1899 93.1072 74.2277 93.1811C74.2655 93.255 74.3177 93.3205 74.3813 93.3738C74.5713 93.4938 74.8213 93.3738 75.0113 93.2638C75.9024 92.7119 76.6333 91.9361 77.1313 91.0138L78.1313 93.3038C78.1949 93.5424 78.3445 93.7489 78.5513 93.8838C78.6983 93.9335 78.8576 93.9329 79.0042 93.8823C79.1508 93.8316 79.2764 93.7336 79.3613 93.6038C79.5205 93.3393 79.6164 93.0415 79.6413 92.7338L80.0013 90.5538C80.009 90.4407 80.0509 90.3326 80.1213 90.2438C80.2316 90.1645 80.3657 90.1256 80.5013 90.1338C81.4113 90.1338 82.3213 90.1338 83.2313 90.1338C83.3813 89.6438 82.9013 89.1938 82.4413 88.9938C81.9813 88.7938 81.4413 88.6338 81.1913 88.1838C80.7113 87.2638 81.9413 85.9838 81.4213 85.1838C80.9013 84.3838 79.7813 85.1638 78.9813 85.5538Z" fill="#6C63FF"/>
<path opacity="0.2" d="M63.7913 42.6838C63.6984 42.742 63.591 42.7732 63.4813 42.7738C63.2913 42.7738 63.1513 42.5838 63.0713 42.4038C62.6313 41.4038 62.8813 40.2138 62.2113 39.4038C61.5239 40.2252 60.9704 41.1499 60.5713 42.1438L57.9913 41.3538C57.8615 41.8606 57.8381 42.3888 57.9224 42.9051C58.0067 43.4214 58.197 43.9146 58.4813 44.3538C58.0285 44.5512 57.6151 44.829 57.2613 45.1738C57.0908 45.3529 56.972 45.5748 56.9174 45.816C56.8628 46.0572 56.8745 46.3087 56.9513 46.5438C57.5466 46.6886 58.1592 46.7492 58.7713 46.7238C58.6746 47.8571 58.7386 48.9984 58.9613 50.1138C58.9674 50.1965 58.9899 50.2772 59.0277 50.3511C59.0655 50.425 59.1178 50.4905 59.1813 50.5438C59.3713 50.6638 59.6213 50.5438 59.8113 50.4338C60.706 49.8863 61.438 49.1095 61.9313 48.1838L62.9313 50.4738C63.0031 50.7111 63.1551 50.9161 63.3613 51.0538C63.5183 51.0999 63.6866 51.0878 63.8353 51.0198C63.9841 50.9519 64.1034 50.8326 64.1713 50.6838C64.3341 50.4202 64.4334 50.1223 64.4613 49.8138L64.8113 47.6338C64.819 47.5207 64.8609 47.4126 64.9313 47.3238C65.0429 47.2473 65.1761 47.2087 65.3113 47.2138C66.2213 47.2138 67.1313 47.2138 68.0413 47.2138C68.2013 46.7238 67.7213 46.2738 67.2513 46.0738C66.7813 45.8738 66.2513 45.7138 66.0013 45.2638C65.5313 44.3438 66.7513 43.0638 66.2313 42.2638C65.7113 41.4638 64.5813 42.2438 63.7913 42.6838Z" fill="#6C63FF"/>
<path opacity="0.3" d="M93.7213 98.6838C93.6265 98.7379 93.5203 98.7687 93.4113 98.7738C93.2213 98.7738 93.0813 98.5738 93.0013 98.3938C92.5613 97.4438 92.8113 96.2138 92.1413 95.3938C91.4537 96.2187 90.9002 97.1467 90.5013 98.1438L87.9213 97.3438C87.7927 97.8507 87.7699 98.3787 87.8542 98.8948C87.9385 99.4109 88.1281 99.9041 88.4113 100.344C87.9565 100.538 87.5425 100.816 87.1913 101.164C87.0217 101.341 86.9033 101.562 86.8487 101.801C86.7941 102.04 86.8054 102.29 86.8813 102.524C87.4761 102.672 88.0887 102.736 88.7013 102.714C88.6046 103.844 88.6686 104.982 88.8913 106.094C88.9086 106.259 88.9871 106.413 89.1113 106.524C89.2155 106.566 89.3292 106.579 89.4402 106.561C89.5511 106.543 89.6552 106.496 89.7413 106.424C90.6324 105.872 91.3633 105.096 91.8613 104.174L92.8613 106.464C92.9296 106.7 93.0827 106.903 93.2913 107.034C93.4357 107.084 93.5927 107.084 93.7374 107.035C93.8822 106.987 94.0067 106.891 94.0913 106.764C94.2541 106.5 94.3533 106.202 94.3813 105.894L94.7413 103.714C94.7382 103.651 94.7498 103.588 94.775 103.53C94.8003 103.472 94.8387 103.42 94.8871 103.38C94.9355 103.339 94.9927 103.31 95.0541 103.295C95.1156 103.28 95.1797 103.28 95.2413 103.294C96.1513 103.294 97.0513 103.294 97.9613 103.294C98.1213 102.814 97.6413 102.364 97.1713 102.164C96.7013 101.964 96.1713 101.804 95.9213 101.354C95.4513 100.434 96.6713 99.1538 96.1513 98.3538C95.6313 97.5538 94.5113 98.2438 93.7213 98.6838Z" fill="#6C63FF"/>
</svg>
