<svg width="446" height="393" viewBox="0 0 446 393" fill="none" xmlns="http://www.w3.org/2000/svg">
<path d="M310.317 392.709C309.324 392.709 308.348 392.433 307.485 391.91L143.769 293.203C142.438 292.398 141.461 291.064 141.052 289.492C140.642 287.92 140.834 286.239 141.586 284.818L270.533 41.5891C270.906 40.8856 271.405 40.2672 272.002 39.7694C272.599 39.2716 273.282 38.9042 274.012 38.688C274.742 38.4718 275.505 38.4111 276.257 38.5095C277.009 38.6078 277.736 38.8632 278.396 39.2611L442.112 137.968C443.442 138.773 444.42 140.107 444.829 141.679C445.238 143.251 445.047 144.932 444.295 146.353L315.347 389.581C314.976 390.286 314.478 390.906 313.88 391.404C313.283 391.902 312.599 392.269 311.868 392.483C311.363 392.633 310.841 392.709 310.317 392.709Z" fill="#E6E6E6"/>
<path d="M183.072 207.479L182.414 208.72L355.44 313.04L356.098 311.799L183.072 207.479Z" fill="white"/>
<path d="M159.388 252.154L158.73 253.395L331.756 357.715L332.414 356.474L159.388 252.154Z" fill="white"/>
<path d="M295.087 355.715C294.094 355.714 293.119 355.439 292.255 354.916L128.539 256.209C127.208 255.404 126.231 254.069 125.822 252.498C125.413 250.926 125.605 249.245 126.356 247.824L255.304 4.59493C255.676 3.89137 256.175 3.27303 256.772 2.77524C257.369 2.27745 258.052 1.90996 258.782 1.69377C259.513 1.47758 260.275 1.41692 261.028 1.51527C261.78 1.61361 262.506 1.86903 263.166 2.26693L426.882 100.974C428.213 101.779 429.19 103.113 429.599 104.685C430.009 106.257 429.817 107.938 429.066 109.359L300.118 352.587C299.747 353.292 299.248 353.912 298.651 354.41C298.054 354.908 297.37 355.274 296.639 355.489C296.133 355.639 295.611 355.715 295.087 355.715Z" fill="#F2F2F2"/>
<path d="M250.737 14.1241L250.079 15.3651L423.105 119.685L423.763 118.444L250.737 14.1241Z" fill="white"/>
<path d="M238.895 36.4614L238.237 37.7024L411.263 142.022L411.921 140.781L238.895 36.4614Z" fill="white"/>
<path d="M227.053 58.7987L226.395 60.0397L399.421 164.36L400.079 163.119L227.053 58.7987Z" fill="white"/>
<path d="M215.211 81.136L214.553 82.377L387.579 186.697L388.236 185.456L215.211 81.136Z" fill="white"/>
<path d="M203.369 103.473L202.711 104.714L375.736 209.034L376.394 207.793L203.369 103.473Z" fill="white"/>
<path d="M191.527 125.811L190.869 127.052L363.894 231.372L364.552 230.131L191.527 125.811Z" fill="white"/>
<path d="M179.685 148.148L179.027 149.389L352.052 253.709L352.71 252.468L179.685 148.148Z" fill="white"/>
<path d="M278.772 0H17.128V387.988H278.772C279.712 387.988 280.614 387.59 281.278 386.881C281.943 386.173 282.316 385.211 282.316 384.209V3.7791C282.316 2.77683 281.943 1.81562 281.278 1.1069C280.614 0.398189 279.712 2.15365e-05 278.772 0ZM31.8935 377.281C30.6085 377.281 29.3524 376.874 28.284 376.113C27.2156 375.352 26.3829 374.27 25.8912 373.004C25.3994 371.738 25.2708 370.345 25.5215 369.001C25.7722 367.657 26.3909 366.422 27.2995 365.453C28.2081 364.484 29.3657 363.824 30.626 363.557C31.8863 363.29 33.1925 363.427 34.3797 363.951C35.5668 364.476 36.5815 365.364 37.2954 366.503C38.0093 367.642 38.3903 368.982 38.3903 370.352C38.3903 371.262 38.2222 372.163 37.8957 373.004C37.5693 373.844 37.0907 374.608 36.4874 375.251C35.8841 375.895 35.1679 376.405 34.3797 376.753C33.5915 377.101 32.7466 377.281 31.8935 377.281ZM31.8935 342.009C30.6085 342.009 29.3524 341.603 28.284 340.841C27.2156 340.08 26.3829 338.998 25.8912 337.732C25.3995 336.466 25.2708 335.073 25.5215 333.729C25.7722 332.385 26.3909 331.15 27.2995 330.182C28.2081 329.213 29.3657 328.553 30.626 328.285C31.8863 328.018 33.1925 328.155 34.3797 328.68C35.5668 329.204 36.5815 330.092 37.2954 331.231C38.0093 332.371 38.3903 333.71 38.3903 335.081C38.3903 335.991 38.2223 336.891 37.8958 337.732C37.5693 338.573 37.0907 339.336 36.4874 339.98C35.8841 340.623 35.1679 341.133 34.3797 341.482C33.5915 341.83 32.7466 342.009 31.8935 342.009ZM31.8935 306.737C30.6085 306.737 29.3524 306.331 28.284 305.57C27.2156 304.808 26.3829 303.726 25.8912 302.46C25.3995 301.194 25.2708 299.801 25.5215 298.457C25.7722 297.113 26.3909 295.879 27.2995 294.91C28.2081 293.941 29.3657 293.281 30.626 293.014C31.8863 292.746 33.1925 292.884 34.3797 293.408C35.5668 293.932 36.5815 294.82 37.2954 295.96C38.0093 297.099 38.3903 298.439 38.3903 299.809C38.3903 300.719 38.2222 301.62 37.8957 302.46C37.5693 303.301 37.0907 304.065 36.4874 304.708C35.8841 305.351 35.1679 305.862 34.3797 306.21C33.5915 306.558 32.7466 306.737 31.8935 306.737ZM31.8935 271.466C30.6085 271.466 29.3524 271.059 28.284 270.298C27.2156 269.537 26.3829 268.455 25.8912 267.189C25.3995 265.923 25.2708 264.53 25.5215 263.186C25.7722 261.842 26.3909 260.607 27.2995 259.638C28.2081 258.669 29.3657 258.009 30.626 257.742C31.8863 257.475 33.1925 257.612 34.3797 258.136C35.5668 258.661 36.5815 259.549 37.2954 260.688C38.0093 261.828 38.3903 263.167 38.3903 264.537C38.3903 265.447 38.2222 266.348 37.8957 267.189C37.5693 268.029 37.0907 268.793 36.4874 269.436C35.8841 270.08 35.1679 270.59 34.3797 270.938C33.5915 271.286 32.7466 271.466 31.8935 271.466ZM31.8935 236.194C30.6085 236.194 29.3524 235.788 28.284 235.026C27.2156 234.265 26.3829 233.183 25.8912 231.917C25.3995 230.651 25.2708 229.258 25.5215 227.914C25.7722 226.57 26.3909 225.336 27.2995 224.367C28.2081 223.398 29.3657 222.738 30.626 222.47C31.8863 222.203 33.1925 222.34 34.3797 222.865C35.5668 223.389 36.5815 224.277 37.2954 225.417C38.0093 226.556 38.3903 227.895 38.3903 229.266C38.3903 230.176 38.2222 231.076 37.8957 231.917C37.5693 232.758 37.0907 233.521 36.4874 234.165C35.8841 234.808 35.1679 235.318 34.3797 235.667C33.5915 236.015 32.7466 236.194 31.8935 236.194ZM31.8935 200.922C30.6085 200.922 29.3524 200.516 28.284 199.755C27.2156 198.993 26.3829 197.911 25.8912 196.645C25.3995 195.379 25.2708 193.986 25.5215 192.642C25.7722 191.298 26.3909 190.064 27.2995 189.095C28.2081 188.126 29.3657 187.466 30.626 187.199C31.8863 186.931 33.1925 187.069 34.3797 187.593C35.5668 188.117 36.5815 189.005 37.2954 190.145C38.0093 191.284 38.3903 192.624 38.3903 193.994C38.3903 194.904 38.2222 195.805 37.8957 196.645C37.5693 197.486 37.0907 198.25 36.4874 198.893C35.8841 199.537 35.1679 200.047 34.3797 200.395C33.5915 200.743 32.7466 200.922 31.8935 200.922ZM31.8935 165.651C30.6085 165.651 29.3524 165.244 28.284 164.483C27.2156 163.722 26.3829 162.64 25.8912 161.374C25.3995 160.108 25.2708 158.715 25.5215 157.371C25.7722 156.027 26.3909 154.792 27.2995 153.823C28.2081 152.854 29.3657 152.195 30.626 151.927C31.8863 151.66 33.1925 151.797 34.3797 152.321C35.5668 152.846 36.5815 153.734 37.2954 154.873C38.0093 156.013 38.3903 157.352 38.3903 158.722C38.3903 159.632 38.2222 160.533 37.8957 161.374C37.5693 162.214 37.0907 162.978 36.4874 163.622C35.8841 164.265 35.1679 164.775 34.3797 165.123C33.5915 165.472 32.7466 165.651 31.8935 165.651ZM31.8935 130.379C30.6085 130.379 29.3524 129.973 28.284 129.212C27.2156 128.45 26.3829 127.368 25.8912 126.102C25.3995 124.836 25.2708 123.443 25.5215 122.099C25.7722 120.755 26.3909 119.521 27.2995 118.552C28.2081 117.583 29.3657 116.923 30.626 116.656C31.8863 116.388 33.1925 116.525 34.3797 117.05C35.5668 117.574 36.5815 118.462 37.2954 119.602C38.0093 120.741 38.3903 122.08 38.3903 123.451C38.3903 124.361 38.2222 125.262 37.8957 126.102C37.5693 126.943 37.0907 127.707 36.4874 128.35C35.8841 128.993 35.1679 129.504 34.3797 129.852C33.5915 130.2 32.7466 130.379 31.8935 130.379ZM31.8935 95.1075C30.6085 95.1075 29.3524 94.7011 28.284 93.9398C27.2156 93.1786 26.3829 92.0965 25.8912 90.8305C25.3995 89.5645 25.2708 88.1714 25.5215 86.8274C25.7722 85.4835 26.3909 84.249 27.2995 83.28C28.2081 82.3111 29.3657 81.6512 30.626 81.3839C31.8863 81.1166 33.1925 81.2538 34.3797 81.7782C35.5668 82.3025 36.5815 83.1906 37.2954 84.3299C38.0093 85.4693 38.3903 86.8088 38.3903 88.1791C38.3903 89.089 38.2222 89.9899 37.8957 90.8305C37.5693 91.6711 37.0907 92.4349 36.4874 93.0782C35.8841 93.7216 35.1679 94.2319 34.3797 94.5801C33.5915 94.9283 32.7466 95.1075 31.8935 95.1075ZM31.8935 59.8358C30.6085 59.8358 29.3524 59.4295 28.284 58.6682C27.2156 57.9069 26.3829 56.8248 25.8912 55.5588C25.3994 54.2928 25.2708 52.8998 25.5215 51.5558C25.7722 50.2119 26.3909 48.9773 27.2995 48.0084C28.2081 47.0394 29.3657 46.3796 30.626 46.1122C31.8863 45.8449 33.1925 45.9821 34.3797 46.5065C35.5668 47.0309 36.5815 47.9189 37.2954 49.0583C38.0093 50.1976 38.3903 51.5372 38.3903 52.9075C38.3903 53.8173 38.2222 54.7183 37.8957 55.5588C37.5693 56.3994 37.0907 57.1632 36.4874 57.8066C35.8841 58.4499 35.1679 58.9603 34.3797 59.3085C33.5915 59.6566 32.7466 59.8358 31.8935 59.8358ZM31.8935 24.5642C30.6085 24.5642 29.3524 24.1578 28.284 23.3966C27.2156 22.6353 26.3829 21.5532 25.8912 20.2872C25.3994 19.0212 25.2708 17.6281 25.5215 16.2842C25.7722 14.9402 26.3909 13.7057 27.2995 12.7367C28.2081 11.7678 29.3657 11.1079 30.626 10.8406C31.8863 10.5733 33.1925 10.7105 34.3797 11.2348C35.5668 11.7592 36.5815 12.6473 37.2954 13.7866C38.0093 14.926 38.3903 16.2655 38.3903 17.6358C38.3903 18.5457 38.2222 19.4466 37.8957 20.2872C37.5693 21.1278 37.0907 21.8916 36.4874 22.5349C35.8841 23.1783 35.1679 23.6886 34.3797 24.0368C33.5915 24.385 32.7466 24.5642 31.8935 24.5642Z" fill="#E76F51"/>
<path d="M17.128 21.4149C15.3748 21.4149 0 21.3267 0 18.2657C0 15.2047 15.3748 15.1164 17.128 15.1164V16.3761C8.07235 16.3761 2.20054 17.4571 1.25492 18.2657C2.20054 19.0742 8.07235 20.1552 17.128 20.1552C26.1634 20.1552 32.0291 19.0788 32.9945 18.2712C32.5351 17.9252 30.6584 17.2001 25.6245 16.736L25.7261 15.4812C34.2559 16.2673 34.2559 17.7192 34.2559 18.2657C34.2559 21.3267 18.8811 21.4149 17.128 21.4149Z" fill="#E6E6E6"/>
<path d="M17.128 56.0567C15.3748 56.0567 0 55.9685 0 52.9075C0 49.8465 15.3748 49.7582 17.128 49.7582V51.018C8.07235 51.018 2.20054 52.099 1.25492 52.9075C2.20054 53.716 8.07235 54.7971 17.128 54.7971C26.1634 54.7971 32.0291 53.7206 32.9945 52.9131C32.5351 52.5671 30.6584 51.8419 25.6245 51.3778L25.7261 50.123C34.2559 50.9091 34.2559 52.361 34.2559 52.9075C34.2559 55.9685 18.8811 56.0567 17.128 56.0567Z" fill="#E6E6E6"/>
<path d="M17.128 91.3284C15.3748 91.3284 0 91.2401 0 88.1791C0 85.1181 15.3748 85.0299 17.128 85.0299V86.2896C8.07235 86.2896 2.20054 87.3706 1.25492 88.1791C2.20054 88.9876 8.07235 90.0687 17.128 90.0687C26.1634 90.0687 32.0291 88.9922 32.9945 88.1847C32.5351 87.8387 30.6584 87.1135 25.6245 86.6494L25.7261 85.3946C34.2559 86.1807 34.2559 87.6326 34.2559 88.1791C34.2559 91.2401 18.8811 91.3284 17.128 91.3284Z" fill="#E6E6E6"/>
<path d="M17.128 126.6C15.3748 126.6 0 126.512 0 123.451C0 120.39 15.3748 120.302 17.128 120.302V121.561C8.07235 121.561 2.20054 122.642 1.25492 123.451C2.20054 124.259 8.07235 125.34 17.128 125.34C26.1634 125.34 32.0291 124.264 32.9945 123.456C32.5351 123.11 30.6584 122.385 25.6245 121.921L25.7261 120.666C34.2559 121.452 34.2559 122.904 34.2559 123.451C34.2559 126.512 18.8811 126.6 17.128 126.6Z" fill="#E6E6E6"/>
<path d="M17.128 161.872C15.3748 161.872 0 161.783 0 158.722C0 155.661 15.3748 155.573 17.128 155.573V156.833C8.07235 156.833 2.20054 157.914 1.25492 158.722C2.20054 159.531 8.07235 160.612 17.128 160.612C26.1634 160.612 32.0291 159.536 32.9945 158.728C32.5351 158.382 30.6584 157.657 25.6245 157.193L25.7261 155.938C34.2559 156.724 34.2559 158.176 34.2559 158.722C34.2559 161.783 18.8811 161.872 17.128 161.872Z" fill="#E6E6E6"/>
<path d="M17.128 197.143C15.3748 197.143 0 197.055 0 193.994C0 190.933 15.3748 190.845 17.128 190.845V192.104C8.07235 192.104 2.20054 193.186 1.25492 193.994C2.20054 194.803 8.07235 195.884 17.128 195.884C26.1634 195.884 32.0291 194.807 32.9945 194C32.5351 193.654 30.6584 192.928 25.6245 192.464L25.7261 191.21C34.2559 191.996 34.2559 193.448 34.2559 193.994C34.2559 197.055 18.8811 197.143 17.128 197.143Z" fill="#E6E6E6"/>
<path d="M17.128 232.415C15.3748 232.415 0 232.327 0 229.266C0 226.205 15.3748 226.116 17.128 226.116V227.376C8.07235 227.376 2.20054 228.457 1.25492 229.266C2.20054 230.074 8.07235 231.155 17.128 231.155C26.1634 231.155 32.0291 230.079 32.9945 229.271C32.5351 228.925 30.6584 228.2 25.6245 227.736L25.7261 226.481C34.2559 227.267 34.2559 228.719 34.2559 229.266C34.2559 232.327 18.8811 232.415 17.128 232.415Z" fill="#E6E6E6"/>
<path d="M17.128 267.687C15.3748 267.687 0 267.598 0 264.537C0 261.476 15.3748 261.388 17.128 261.388V262.648C8.07235 262.648 2.20054 263.729 1.25492 264.537C2.20054 265.346 8.07235 266.427 17.128 266.427C26.1634 266.427 32.0291 265.35 32.9945 264.543C32.5351 264.197 30.6584 263.472 25.6245 263.008L25.7261 261.753C34.2559 262.539 34.2559 263.991 34.2559 264.537C34.2559 267.598 18.8811 267.687 17.128 267.687Z" fill="#E6E6E6"/>
<path d="M17.128 302.958C15.3748 302.958 0 302.87 0 299.809C0 296.748 15.3748 296.66 17.128 296.66V297.919C8.07235 297.919 2.20054 299.001 1.25492 299.809C2.20054 300.618 8.07235 301.699 17.128 301.699C26.1634 301.699 32.0291 300.622 32.9945 299.815C32.5351 299.469 30.6584 298.743 25.6245 298.279L25.7261 297.025C34.2559 297.811 34.2559 299.263 34.2559 299.809C34.2559 302.87 18.8811 302.958 17.128 302.958Z" fill="#E6E6E6"/>
<path d="M17.128 338.23C15.3748 338.23 0 338.142 0 335.081C0 332.02 15.3748 331.931 17.128 331.931V333.191C8.07235 333.191 2.20054 334.272 1.25492 335.081C2.20054 335.889 8.07235 336.97 17.128 336.97C26.1634 336.97 32.0291 335.894 32.9945 335.086C32.5351 334.74 30.6584 334.015 25.6245 333.551L25.7261 332.296C34.2559 333.082 34.2559 334.534 34.2559 335.081C34.2559 338.142 18.8811 338.23 17.128 338.23Z" fill="#E6E6E6"/>
<path d="M17.128 373.502C15.3748 373.502 0 373.413 0 370.352C0 367.291 15.3748 367.203 17.128 367.203V368.463C8.07235 368.463 2.20054 369.544 1.25492 370.352C2.20054 371.161 8.07235 372.242 17.128 372.242C26.1634 372.242 32.0291 371.165 32.9945 370.358C32.5351 370.012 30.6584 369.287 25.6245 368.823L25.7261 367.568C34.2559 368.354 34.2559 369.806 34.2559 370.352C34.2559 373.413 18.8811 373.502 17.128 373.502Z" fill="#E6E6E6"/>
<path d="M225.321 148.33H95.385C94.3672 148.329 93.3914 147.897 92.6717 147.129C91.952 146.362 91.5472 145.321 91.546 144.236V90.0687C91.5472 88.9833 91.952 87.9426 92.6717 87.1751C93.3914 86.4076 94.3672 85.9759 95.385 85.9746H225.321C226.339 85.9759 227.315 86.4076 228.035 87.1751C228.754 87.9426 229.159 88.9833 229.16 90.0687V144.236C229.159 145.321 228.754 146.362 228.035 147.129C227.315 147.897 226.339 148.329 225.321 148.33Z" fill="white"/>
<path d="M176.891 104.555H143.816C143.033 104.555 142.282 104.223 141.728 103.633C141.174 103.042 140.863 102.241 140.863 101.406C140.863 100.571 141.174 99.7697 141.728 99.1791C142.282 98.5885 143.033 98.2567 143.816 98.2567H176.891C177.674 98.2567 178.425 98.5885 178.979 99.1791C179.533 99.7697 179.844 100.571 179.844 101.406C179.844 102.241 179.533 103.042 178.979 103.633C178.425 104.223 177.674 104.555 176.891 104.555Z" fill="#E76F51"/>
<path d="M195.2 120.301H125.507C124.723 120.301 123.972 119.97 123.418 119.379C122.865 118.789 122.554 117.987 122.554 117.152C122.554 116.317 122.865 115.516 123.418 114.925C123.972 114.335 124.723 114.003 125.507 114.003H195.2C195.983 114.003 196.734 114.335 197.288 114.925C197.842 115.516 198.153 116.317 198.153 117.152C198.153 117.987 197.842 118.789 197.288 119.379C196.734 119.97 195.983 120.301 195.2 120.301Z" fill="#E76F51"/>
<path d="M195.2 136.048H125.507C124.723 136.048 123.972 135.716 123.418 135.125C122.865 134.535 122.554 133.734 122.554 132.899C122.554 132.063 122.865 131.262 123.418 130.672C123.972 130.081 124.723 129.749 125.507 129.749H195.2C195.983 129.749 196.734 130.081 197.288 130.672C197.842 131.262 198.153 132.063 198.153 132.899C198.153 133.734 197.842 134.535 197.288 135.125C196.734 135.716 195.983 136.048 195.2 136.048Z" fill="#E76F51"/>
</svg>
